<?xml version="1.0" standalone="no"?>
<!DOCTYPE svg PUBLIC "-//W3C//DTD SVG 20010904//EN"
 "http://www.w3.org/TR/2001/REC-SVG-20010904/DTD/svg10.dtd">
<svg version="1.0" xmlns="http://www.w3.org/2000/svg"
 width="512.000000pt" height="512.000000pt" viewBox="0 0 512.000000 512.000000"
 preserveAspectRatio="xMidYMid meet">

<g transform="translate(0.000000,512.000000) scale(0.100000,-0.100000)"
fill="#000000" stroke="none">
<path d="M2380 5114 c-19 -2 -78 -9 -130 -14 -330 -36 -695 -160 -990 -336
-375 -224 -680 -529 -904 -904 -175 -292 -290 -632 -338 -990 -19 -144 -16
-509 5 -655 65 -439 232 -845 494 -1197 92 -124 297 -335 423 -437 134 -108
240 -181 264 -181 12 0 35 9 53 20 l32 19 73 -42 c70 -40 73 -43 70 -75 -4
-45 17 -68 98 -105 174 -80 421 -151 653 -189 158 -26 530 -31 687 -10 625 83
1150 356 1581 820 351 376 579 872 651 1412 19 144 16 519 -6 660 -73 479
-249 889 -536 1246 -90 112 -208 234 -238 245 -31 12 -89 -13 -103 -45 -19
-40 -3 -73 78 -159 172 -184 299 -368 409 -592 113 -232 180 -448 221 -715 24
-158 24 -500 0 -660 -79 -515 -297 -961 -652 -1329 -419 -435 -978 -690 -1590
-726 -109 -7 -111 -7 -231 33 -813 268 -1433 943 -1634 1777 -51 212 -64 328
-64 575 0 247 13 363 64 575 200 834 823 1510 1634 1777 117 38 124 39 216 33
469 -30 845 -154 1218 -402 103 -68 131 -83 163 -83 33 0 42 5 60 33 23 37 19
82 -9 108 -43 41 -250 171 -377 236 -270 138 -537 221 -850 263 -83 11 -434
21 -495 14z"/>
<path d="M1746 3875 c-30 -10 -96 -70 -259 -232 -120 -120 -225 -231 -233
-246 -25 -47 -29 -121 -9 -174 15 -40 69 -99 324 -356 l305 -307 -301 -303
c-313 -314 -342 -350 -343 -427 0 -89 10 -103 243 -338 122 -123 235 -230 250
-238 48 -25 121 -29 174 -9 40 15 99 69 356 323 l307 306 308 -306 c256 -254
315 -308 355 -323 53 -20 126 -16 174 9 15 8 128 115 250 238 233 235 243 249
243 338 -1 77 -30 113 -343 427 l-301 303 301 303 c313 314 342 350 343 427 0
89 -10 103 -243 338 -122 123 -235 230 -250 238 -48 25 -121 29 -174 9 -40
-15 -99 -69 -356 -324 l-307 -305 -303 301 c-318 317 -350 343 -432 342 -22 0
-58 -6 -79 -14z m419 -486 c182 -182 343 -337 359 -345 17 -10 39 -13 55 -9
16 4 152 132 367 347 270 269 345 339 361 334 26 -8 413 -399 413 -417 0 -8
-149 -163 -331 -344 -182 -182 -337 -343 -345 -359 -10 -17 -13 -39 -9 -55 4
-16 132 -152 347 -367 269 -270 339 -345 334 -361 -8 -26 -399 -413 -417 -413
-8 0 -163 149 -344 331 -182 182 -343 337 -359 345 -17 10 -39 13 -55 9 -16
-4 -152 -132 -367 -347 -270 -269 -345 -339 -361 -334 -26 8 -413 399 -413
417 0 8 149 163 331 344 182 182 337 343 345 359 10 17 13 39 9 55 -4 16 -132
152 -347 367 -269 270 -339 345 -334 361 8 26 399 413 417 413 8 0 163 -149
344 -331z"/>
</g>
</svg>
