<?xml version="1.0" standalone="no"?>
<!DOCTYPE svg PUBLIC "-//W3C//DTD SVG 20010904//EN"
 "http://www.w3.org/TR/2001/REC-SVG-20010904/DTD/svg10.dtd">
<svg version="1.0" xmlns="http://www.w3.org/2000/svg"
 width="512.000000pt" height="512.000000pt" viewBox="0 0 512.000000 512.000000"
 preserveAspectRatio="xMidYMid meet">

<g transform="translate(0.000000,512.000000) scale(0.100000,-0.100000)"
fill="#000000" stroke="none">
<path d="M4404 5105 c-66 -14 -170 -61 -219 -100 -64 -49 -2281 -2277 -2296
-2308 -9 -17 -52 -210 -95 -427 -85 -435 -86 -445 -31 -504 62 -66 64 -66 517
25 223 45 416 87 430 94 14 7 534 524 1156 1148 842 844 1140 1150 1168 1195
58 95 78 163 83 282 9 179 -42 314 -162 436 -141 143 -349 203 -551 159z m251
-333 c93 -47 139 -125 140 -232 0 -102 -17 -132 -147 -265 l-107 -110 -188
188 -188 188 116 114 c94 92 125 116 165 129 63 20 157 15 209 -12z m-1225
-1717 l-880 -880 -228 -46 c-125 -26 -228 -46 -230 -44 -2 2 17 106 42 232
l46 228 383 385 c210 212 605 609 877 882 l495 498 187 -187 188 -188 -880
-880z"/>
<path d="M458 4255 c-163 -40 -317 -166 -387 -317 -21 -45 -44 -107 -50 -136
-15 -74 -16 -3259 0 -3334 6 -29 29 -91 51 -138 75 -158 226 -276 400 -315 66
-14 239 -15 1703 -13 l1630 3 55 21 c159 61 275 159 343 290 69 134 67 92 67
1163 0 963 0 963 -21 1001 -43 76 -151 104 -219 58 -18 -13 -43 -36 -54 -51
-21 -28 -21 -34 -26 -1005 l-5 -977 -27 -47 c-16 -25 -45 -60 -65 -77 -79 -65
33 -61 -1713 -61 -1791 0 -1644 -7 -1730 80 -87 86 -80 -62 -80 1734 0 1065 4
1603 10 1628 15 53 68 118 125 153 l48 30 971 5 971 5 35 22 c96 59 100 199 8
265 l-33 23 -975 2 c-804 1 -985 -1 -1032 -12z"/>
</g>
</svg>
