<?xml version="1.0" standalone="no"?>
<!DOCTYPE svg PUBLIC "-//W3C//DTD SVG 20010904//EN"
 "http://www.w3.org/TR/2001/REC-SVG-20010904/DTD/svg10.dtd">
<svg version="1.0" xmlns="http://www.w3.org/2000/svg"
 width="512.000000pt" height="512.000000pt" viewBox="0 0 512.000000 512.000000"
 preserveAspectRatio="xMidYMid meet">

<g transform="translate(0.000000,512.000000) scale(0.100000,-0.100000)"
fill="#000000" stroke="none">
<path d="M371 5104 c-161 -43 -283 -167 -326 -329 -13 -52 -15 -310 -15 -2215
0 -2361 -4 -2209 58 -2324 35 -65 113 -143 178 -178 95 -51 145 -58 427 -58
146 0 266 4 276 10 10 5 24 23 31 40 l12 30 94 0 c91 0 95 -1 104 -24 5 -13
19 -31 32 -40 20 -15 181 -16 1733 -16 1872 0 1765 -3 1879 58 65 35 143 113
178 178 61 114 58 -5 58 1999 0 2002 3 1884 -57 1999 -38 72 -757 791 -829
829 -115 60 1 57 -1974 56 -1544 0 -1813 -2 -1859 -15z m3379 -312 c0 -172 1
-179 23 -199 12 -11 30 -23 40 -26 15 -5 17 -20 17 -102 0 -74 -3 -95 -14 -95
-8 0 -24 -9 -37 -19 l-24 -19 -5 -482 -5 -482 -33 -29 -32 -29 -1120 0 -1120
0 -32 29 -33 29 -3 801 -2 801 1190 0 1190 0 0 -178z m370 -2250 c19 -9 45
-32 57 -51 l23 -34 -2 -843 -3 -842 -25 -27 c-55 -59 53 -55 -1610 -55 -1663
0 -1555 -4 -1610 55 l-25 27 -3 842 -2 843 23 34 c12 19 38 42 57 51 33 17
128 18 1560 18 1432 0 1527 -1 1560 -18z"/>
<path d="M2975 4733 c-34 -9 -63 -33 -79 -68 -14 -29 -16 -97 -16 -537 0 -481
1 -504 20 -535 37 -62 52 -64 341 -61 l261 3 34 37 34 38 0 518 0 519 -23 34
c-35 53 -64 58 -322 57 -126 0 -239 -3 -250 -5z m445 -603 l0 -450 -195 0
-195 0 0 450 0 450 195 0 195 0 0 -450z"/>
<path d="M2410 2395 c-299 -61 -535 -285 -611 -580 -28 -110 -28 -271 1 -380
97 -372 422 -613 800 -592 58 3 132 13 165 22 147 40 307 146 408 270 182 225
221 557 97 822 -150 322 -516 508 -860 438z m348 -171 c188 -63 329 -201 400
-392 30 -82 41 -239 22 -334 -56 -287 -325 -508 -620 -508 -288 0 -551 208
-616 487 -24 100 -15 266 18 355 81 218 269 378 490 417 85 16 218 5 306 -25z"/>
<path d="M2751 1848 c-47 -45 -144 -139 -215 -208 -70 -69 -130 -120 -133
-115 -32 76 -103 193 -124 204 -36 20 -83 1 -100 -40 -11 -28 -7 -40 67 -191
89 -181 107 -200 166 -174 18 8 147 126 287 263 243 239 254 250 247 279 -11
44 -34 64 -74 64 -30 0 -47 -12 -121 -82z"/>
</g>
</svg>
